<?xml version="1.0" encoding="UTF-8" standalone="no"?>
<!-- Created with Inkscape (http://www.inkscape.org/) -->

<svg
   version="1.1"
   id="svg1"
   width="1024"
   height="1024"
   viewBox="0 0 1024 1024"
   sodipodi:docname="yandi base.svg"
   inkscape:version="1.4.2 (f4327f4, 2025-05-13)"
   xmlns:inkscape="http://www.inkscape.org/namespaces/inkscape"
   xmlns:sodipodi="http://sodipodi.sourceforge.net/DTD/sodipodi-0.dtd"
   xmlns="http://www.w3.org/2000/svg"
   xmlns:svg="http://www.w3.org/2000/svg">
  <defs
     id="defs1" />
  <sodipodi:namedview
     id="namedview1"
     pagecolor="#ffffff"
     bordercolor="#000000"
     borderopacity="0.25"
     inkscape:showpageshadow="2"
     inkscape:pageopacity="0.0"
     inkscape:pagecheckerboard="0"
     inkscape:deskcolor="#d1d1d1"
     inkscape:zoom="0.94042969"
     inkscape:cx="443.41433"
     inkscape:cy="524.76012"
     inkscape:window-width="2160"
     inkscape:window-height="1244"
     inkscape:window-x="-11"
     inkscape:window-y="-11"
     inkscape:window-maximized="1"
     inkscape:current-layer="g1" />
  <g
     inkscape:groupmode="layer"
     inkscape:label="Image"
     id="g1">
    <g
       id="g92"
       transform="translate(64.863967,109.5244)">
      <path
         id="path77"
         style="fill:#8e8f91"
         d="m 714.20239,325.50423 c -2.07629,0.0498 -4.23009,0.60423 -6.43555,1.67187 -12.78962,6.19136 -11.56861,24.80645 1.89844,28.94727 12.99001,3.99414 24.91292,-12.83061 16.79688,-23.70118 -3.50464,-4.69407 -7.69193,-7.02746 -12.25977,-6.91796 z M 495.70434,372.7386 c -11.53631,0.0842 -23.62034,4.47406 -34.125,13.69727 -3.86351,3.3922 -4.20096,3.04793 -4.63476,-4.71094 l -0.2793,-5 h -11 -11 l -0.25976,56 c -0.14283,30.8 -0.0393,56.57816 0.23046,57.2832 0.36925,0.9649 3.40079,1.2122 12.25977,1 l 11.76953,-0.2832 0.50781,-36 c 0.55282,-39.06152 0.52389,-38.84318 6.61914,-47.66992 9.42818,-13.6533 34.2084,-15.08839 43.78321,-2.53516 6.03918,7.91777 6.04664,7.96543 6.58984,48.70508 l 0.5,37.5 11.72266,0.28125 11.72265,0.2832 0.62696,-2.49805 c 1.33349,-5.31304 -0.22935,-77.79442 -1.79102,-83.0664 -6.31284,-21.31133 -24.015,-33.12665 -43.24219,-32.98633 z m -133.86718,1.15234 c -20.10671,0.0156 -43.84232,4.70816 -42.31641,10.06055 0.27803,0.97524 1.26377,5.29507 2.19141,9.59961 1.98427,9.20769 2.38721,9.47711 9.50586,6.33203 22.55888,-9.9667 50.76727,-4.76592 54.90234,10.12305 3.43528,12.36925 4.01431,12.10227 -26.95508,12.47851 -22.07997,0.26825 -23.86362,0.42981 -29.49414,2.67578 -31.59997,12.60499 -26.46914,59.32983 7.51758,68.46289 15.88271,4.26807 34.04069,0.50013 46.92578,-9.73437 5.3701,-4.26542 6.05078,-3.99135 6.05078,2.42969 v 4.97461 l 10.75,-0.28321 10.75,-0.28515 0.26172,-39.42969 c 0.38433,-57.89026 -4.28651,-68.85224 -32.26172,-75.71289 -4.82554,-1.18342 -11.12589,-1.69659 -17.82812,-1.69141 z m 351.04297,2.16797 c -5.05129,0.13214 -10.02049,0.86983 -10.67969,2.10157 -1.44177,2.69394 -1.42518,108.4685 0.0176,111.16406 0.96218,1.79784 1.97566,1.94245 11.75,1.68359 l 10.69726,-0.2832 0.25781,-55.88672 c 0.18703,-40.44321 -0.0547,-56.26391 -0.87304,-57.25 -0.98652,-1.18868 -6.11866,-1.66143 -11.16992,-1.5293 z m -343.83008,63.18164 c 20.18155,0.0186 19.5256,-0.29846 18.91015,9.12891 -0.9225,14.13058 -8.48928,22.74865 -22.5957,25.73437 -18.80657,3.98052 -32.64579,-3.40863 -32.68359,-17.45117 -0.038,-14.08811 6.96009,-17.43921 36.36914,-17.41211 z" />
      <path
         id="path76"
         style="fill:#e7741c"
         d="m 652.5462,328.43012 v 30.94141 c 0,35.18658 0.37133,33.9562 -8.2207,27.21093 -14.95295,-11.73898 -32.22837,-15.07444 -48.9082,-9.44336 -53.62421,18.10342 -52.95929,95.86348 0.98242,114.9043 16.1634,5.70549 33.89825,1.80639 48.50976,-10.66406 6.9725,-5.9508 8.39152,-5.51975 8.8379,2.68359 l 0.29882,5.4668 9.5,0.20117 9.5,0.19922 0.25586,-80.75 0.25586,-80.75 h -10.50586 z m -38.26172,65.91601 c 9.8062,-0.0247 19.76299,3.65891 27.04688,11.0586 19.0998,19.40344 13.22955,54.33313 -11.08594,65.95898 -36.98861,17.68523 -70.32951,-34.43445 -42.10742,-65.82422 6.68453,-7.4348 16.34027,-11.16871 26.14648,-11.19336 z" />
      <path
         style="fill:#162548"
         d="m 209.46535,527.94786 c -6.93669,-1.87112 -16.42767,-6.16293 -16.42767,-7.42858 0,-0.57116 1.67368,-4.42093 3.71929,-8.55503 4.0476,-8.18007 4.67762,-8.51913 10.90859,-5.87076 15.97127,6.78833 35.68351,-5.82888 35.74083,-22.87663 0.0284,-8.45928 -2.22688,-9.76915 -16.82052,-9.76915 -12.90423,0 -16.54819,-1.10102 -16.54819,-5 0,-4.11049 3.47767,-5 19.54819,-5 h 15.10318 l 2.29662,-2.44464 c 2.73971,-2.91629 2.22061,-6.85958 -1.13976,-8.65799 -1.46692,-0.78508 -10.53032,-1.19869 -28.02342,-1.27887 -27.64974,-0.12672 -27.73195,-0.14203 -27.7695,-5.1685 -0.0301,-4.03585 1.6497,-4.45 18.04983,-4.45 17.59963,0 20.93486,-1.09899 20.93486,-6.89827 0,-5.86767 -3.09558,-7.10173 -17.81445,-7.10173 -14.6621,0 -18.60986,-1.47014 -16.17328,-6.02292 0.98419,-1.83898 2.14148,-1.97708 16.56837,-1.97708 h 15.51027 l 2.45454,-2.45455 c 3.34023,-3.34023 3.26408,-7.76351 -0.18031,-10.47287 -2.48775,-1.95686 -3.88722,-2.07258 -25.06574,-2.07258 -23.8037,0 -26.2994,-0.42703 -26.2994,-4.5 0,-3.88629 2.72484,-4.5 19.97971,-4.5 h 16.1112 l 2.45454,-2.45455 c 2.99864,-2.99863 3.10374,-5.45043 0.38197,-8.91059 l -2.07258,-2.63486 -11.67742,-0.0136 c -15.72447,-0.0184 -21.0756,-2.52813 -16.05707,-7.53095 1.57428,-1.56936 32.44929,-2.29581 33.92393,-0.79819 0.79963,0.81209 11.78916,27.36011 26.01372,62.84279 7.78755,19.42576 8.52998,20.10296 12.38114,11.29328 1.51312,-3.4613 4.26691,-9.66828 6.11954,-13.79328 3.89994,-8.68346 15.02793,-35.05398 23.10372,-54.75 l 2.56264,-6.25 h 11.88748 c 6.53811,0 11.88748,0.35004 11.88748,0.77787 0,0.42782 -2.41039,6.39032 -5.35641,13.25 -2.94603,6.85967 -13.55755,31.59713 -23.58114,54.97213 -24.59548,57.35658 -29.65978,67.59733 -37.11559,75.05314 -11.16433,11.16433 -25.34239,15.2711 -39.51919,11.44701 z M 174.28768,472.4393 c -2.51197,-1.03509 -3.14073,-5.70086 -1.05,-7.79159 1.50513,-1.50513 20.11076,-1.63924 22.86574,-0.16482 2.83999,1.51992 2.62864,6.76212 -0.31574,7.83155 -3.16505,1.14958 -18.79293,1.24034 -21.5,0.12486 z m -17.59501,-46.82033 c -4.75402,-5.25313 -1.45204,-7.17126 12.34501,-7.17126 12.1817,0 14,0.58445 14,4.5 0,4.88044 -22.2995,7.1415 -26.34501,2.67126 z m 0.95035,-45.47057 c -1.18217,-0.86443 -1.66452,-2.28694 -1.44113,-4.25 l 0.33579,-2.95069 7.8448,-0.29377 c 9.72963,-0.36435 13.99094,3.05803 9.4552,7.59377 -1.63382,1.63382 -13.92756,1.55843 -16.19466,-0.0993 z"
         id="path74" />
    </g>
  </g>
</svg>
